<svg id="search" xmlns="http://www.w3.org/2000/svg" width="21.846" height="21.846" viewBox="0 0 21.846 21.846">
  <defs>
    <style>
      .cls-1 {
        fill: #fbbb00;
      }

      .cls-2 {
        fill: #518ef8;
      }

      .cls-3 {
        fill: #28b446;
      }

      .cls-4 {
        fill: #f14336;
      }
    </style>
  </defs>
  <path id="Path_28" data-name="Path 28" class="cls-1" d="M4.842,145.57l-.76,2.839-2.779.059a10.942,10.942,0,0,1-.08-10.2h0l2.474.454,1.084,2.46a6.519,6.519,0,0,0,.061,4.389Z" transform="translate(0 -132.368)"/>
  <path id="Path_29" data-name="Path 29" class="cls-2" d="M272.12,208.176a10.919,10.919,0,0,1-3.894,10.559h0l-3.117-.159-.441-2.754a6.51,6.51,0,0,0,2.8-3.324h-5.841v-4.321H272.12Z" transform="translate(-250.465 -199.293)"/>
  <path id="Path_30" data-name="Path 30" class="cls-3" d="M46.968,315.648h0a10.927,10.927,0,0,1-16.46-3.342l3.54-2.9a6.5,6.5,0,0,0,9.362,3.326Z" transform="translate(-29.207 -296.207)"/>
  <path id="Path_31" data-name="Path 31" class="cls-4" d="M45.3,2.515l-3.539,2.9a6.5,6.5,0,0,0-9.576,3.4L28.625,5.9h0A10.925,10.925,0,0,1,45.3,2.515Z" transform="translate(-27.403)"/>
</svg>
